<svg version="1.1" viewBox="0.0 0.0 186.3018372703412 146.4461942257218" fill="none" stroke="none" stroke-linecap="square" stroke-miterlimit="10" xmlns:xlink="http://www.w3.org/1999/xlink" xmlns="http://www.w3.org/2000/svg"><clipPath id="p.0"><path d="m0 0l186.30183 0l0 146.4462l-186.30183 0l0 -146.4462z" clip-rule="nonzero"/></clipPath><g clip-path="url(#p.0)"><path fill="#000000" fill-opacity="0.0" d="m0 0l186.30183 0l0 146.4462l-186.30183 0z" fill-rule="evenodd"/><path fill="#000000" fill-opacity="0.0" d="m3.4717705 51.222324l0 0c0 -9.345505 7.576028 -16.921532 16.921532 -16.921532l140.91501 0c4.4878693 0 8.791916 1.7827988 11.965332 4.9561996c3.1734009 3.1734047 4.956192 7.477463 4.956192 11.965332l0 67.6841c0 9.345505 -7.5760193 16.92154 -16.921524 16.92154l-140.91501 0c-9.345505 0 -16.921532 -7.5760345 -16.921532 -16.92154z" fill-rule="evenodd"/><path stroke="#ff1493" stroke-width="2.0" stroke-linejoin="round" stroke-linecap="butt" d="m3.4717705 51.222324l0 0c0 -9.345505 7.576028 -16.921532 16.921532 -16.921532l140.91501 0c4.4878693 0 8.791916 1.7827988 11.965332 4.9561996c3.1734009 3.1734047 4.956192 7.477463 4.956192 11.965332l0 67.6841c0 9.345505 -7.5760193 16.92154 -16.921524 16.92154l-140.91501 0c-9.345505 0 -16.921532 -7.5760345 -16.921532 -16.92154z" fill-rule="evenodd"/><path fill="#000000" fill-opacity="0.0" d="m10.1916485 62.5596l0 0c0 -8.093193 6.560829 -14.654018 14.65402 -14.654018l133.36041 0c3.8864899 0 7.6138 1.5438995 10.361969 4.292061c2.7481537 2.7481613 4.292053 6.4754715 4.292053 10.361958l0 58.61432c0 8.093185 -6.5608215 14.654022 -14.654022 14.654022l-133.36041 0c-8.093191 0 -14.65402 -6.560837 -14.65402 -14.654022z" fill-rule="evenodd"/><path stroke="#ff1493" stroke-width="12.0" stroke-linejoin="round" stroke-linecap="butt" d="m10.1916485 62.5596l0 0c0 -8.093193 6.560829 -14.654018 14.65402 -14.654018l133.36041 0c3.8864899 0 7.6138 1.5438995 10.361969 4.292061c2.7481537 2.7481613 4.292053 6.4754715 4.292053 10.361958l0 58.61432c0 8.093185 -6.5608215 14.654022 -14.654022 14.654022l-133.36041 0c-8.093191 0 -14.65402 -6.560837 -14.65402 -14.654022z" fill-rule="evenodd"/><path fill="#000000" fill-opacity="0.0" d="m127.15566 53.726494c-0.22373962 -5.0460052 2.4666977 -23.095352 -1.3424301 -30.276035c-3.8091278 -7.180683 -11.653282 -10.867548 -21.512367 -12.808062c-9.859085 -1.9405146 -30.472214 -7.5682654 -37.642143 1.164978c-7.1699295 8.733242 -4.481205 42.695396 -5.377445 51.23448" fill-rule="evenodd"/><path stroke="#ff1493" stroke-width="12.0" stroke-linejoin="round" stroke-linecap="butt" d="m127.15566 53.726494c-0.22373962 -5.0460052 2.4666977 -23.095352 -1.3424301 -30.276035c-3.8091278 -7.180683 -11.653282 -10.867548 -21.512367 -12.808062c-9.859085 -1.9405146 -30.472214 -7.5682654 -37.642143 1.164978c-7.1699295 8.733242 -4.481205 42.695396 -5.377445 51.23448" fill-rule="evenodd"/><path fill="#000000" fill-opacity="0.0" d="m91.52588 47.905582l57.201416 0.29459" fill-rule="evenodd"/><path stroke="#ff1493" stroke-width="12.0" stroke-linejoin="round" stroke-linecap="butt" d="m91.52588 47.905582l57.201416 0.29459" fill-rule="evenodd"/><path fill="#ff1493" d="m30.124874 108.75535l0 -32.026047l34.160305 32.026047z" fill-rule="evenodd"/><path stroke="#ff1493" stroke-width="4.0" stroke-linejoin="round" stroke-linecap="butt" d="m30.124874 108.75535l0 -32.026047l34.160305 32.026047z" fill-rule="evenodd"/><path fill="#ff1493" d="m107.22356 101.18177c-4.0524826 6.091629 -11.953957 8.930656 -19.343872 6.950325c-7.389923 -1.9803314 -12.467888 -8.297554 -12.431564 -15.465424c0.036331177 -7.1678696 5.1781006 -13.440079 12.587769 -15.355232z" fill-rule="evenodd"/><path stroke="#ff1493" stroke-width="4.0" stroke-linejoin="round" stroke-linecap="butt" d="m107.22356 101.18177c-4.0524826 6.091629 -11.953957 8.930656 -19.343872 6.950325c-7.389923 -1.9803314 -12.467888 -8.297554 -12.431564 -15.465424c0.036331177 -7.1678696 5.1781006 -13.440079 12.587769 -15.355232z" fill-rule="evenodd"/><path fill="#ff1493" d="m118.57323 74.9778l17.177475 32.026047l17.177475 -32.026047z" fill-rule="evenodd"/><path stroke="#ff1493" stroke-width="4.0" stroke-linejoin="round" stroke-linecap="butt" d="m118.57323 74.9778l17.177475 32.026047l17.177475 -32.026047z" fill-rule="evenodd"/></g></svg>